# xmcd
#
# Track frame offsets: 
#        150
#        22007
#        40731
#        59361
#        77904
#        94748
#        108570
#        129573
#        150902
#        168778
#        186330
#        200960
#        217375
#        233560
#        251052
#        266773
#        281420
#        299146
#        315292
#        333103
#
# Disc length: 4677 seconds
#
# Revision: 0
# Processed by: cddbd v1.5.2PL0 Copyright (c) Steve Scherf et al.
# Submitted via: ExactAudioCopy v1.1
#
DISCID=2a124314
DTITLE=Various Artist - 80's Hits 2 - CD 2
DYEAR=2017
DGENRE=Top 40
TTITLE0=Abba - The Winner Takes It All
TTITLE1=Tears For Fears - Everybody Wants To Rule The World
TTITLE2=Orchestral Manoeuvres In The Dark - Maid Of Orleans
TTITLE3=Soft Cell - Torch
TTITLE4=Soul II Soul Feat. Caron Wheeler - Back To Life (However Do Yo
TTITLE4=u Want Me)
TTITLE5=UB40 - Rat In Mi Kitchen
TTITLE6=Garland Jeffreys - Matador
TTITLE7=Billy Ocean - Get Outta My Dreams, Get Into My Car
TTITLE8=The Pointer Sisters - Jump (For My Love)
TTITLE9=Diana Ross - My Old Piano
TTITLE10=Captain Sensible - Wot
TTITLE11=Ready For The World - Oh Sheila
TTITLE12=Was (Not Was) - Walk The Dinosaur
TTITLE13=Huey Lewis and The News - The Power Of Love
TTITLE14=ABC - The Look Of Love
TTITLE15=Trio - Da, Da, Da (I Don't Love You, You Don't Love Me, Ha, H
TTITLE15=a, Ha)
TTITLE16=Cher - If I Could Turn Back Time
TTITLE17=Ziggy Marley And The Melody Makers - Tomorrow People
TTITLE18=Godley and Creme - An Englishman In New York
TTITLE19=Sam Brown - Stop
EXTD=
EXTT0=
EXTT1=
EXTT2=
EXTT3=
EXTT4=
EXTT5=
EXTT6=
EXTT7=
EXTT8=
EXTT9=
EXTT10=
EXTT11=
EXTT12=
EXTT13=
EXTT14=
EXTT15=
EXTT16=
EXTT17=
EXTT18=
EXTT19=
PLAYORDER=
